<?xml version="1.0" encoding="UTF-8" standalone="no"?>
<!-- Created with Inkscape (http://www.inkscape.org/) -->

<svg
   xmlns:dc="http://purl.org/dc/elements/1.1/"
   xmlns:cc="http://creativecommons.org/ns#"
   xmlns:rdf="http://www.w3.org/1999/02/22-rdf-syntax-ns#"
   xmlns:svg="http://www.w3.org/2000/svg"
   xmlns="http://www.w3.org/2000/svg"
   xmlns:sodipodi="http://sodipodi.sourceforge.net/DTD/sodipodi-0.dtd"
   xmlns:inkscape="http://www.inkscape.org/namespaces/inkscape"
   width="3000"
   height="1116.125"
   viewBox="0 0 3000 1116.1251"
   id="svg40450"
   version="1.1"
   inkscape:version="0.91 r13725"
   sodipodi:docname="lider.svg">
  <title
     id="title3526">Ripley</title>
  <defs
     id="defs40452" />
  <sodipodi:namedview
     id="base"
     pagecolor="#ffffff"
     bordercolor="#666666"
     borderopacity="1.0"
     inkscape:pageopacity="0.0"
     inkscape:pageshadow="2"
     inkscape:zoom="0.32973478"
     inkscape:cx="1476.9447"
     inkscape:cy="549.48507"
     inkscape:document-units="px"
     inkscape:current-layer="layer1"
     showgrid="false"
     inkscape:showpageshadow="false"
     fit-margin-top="0"
     fit-margin-bottom="0"
     fit-margin-left="0"
     fit-margin-right="0"
     units="px"
     inkscape:window-width="1366"
     inkscape:window-height="715"
     inkscape:window-x="-8"
     inkscape:window-y="-8"
     inkscape:window-maximized="1" />
  <metadata
     id="metadata40455">
    <rdf:RDF>
      <cc:Work
         rdf:about="">
        <dc:format>image/svg+xml</dc:format>
        <dc:type
           rdf:resource="http://purl.org/dc/dcmitype/StillImage" />
        <dc:title>Ripley</dc:title>
      </cc:Work>
    </rdf:RDF>
  </metadata>
  <g
     inkscape:label="Capa 1"
     inkscape:groupmode="layer"
     id="layer1"
     transform="translate(904.95446,984.08537)">
    <g
       id="g3490"
       transform="matrix(1.0156101,0,0,1.0156101,14.126461,-2.0611565)">
      <path
         inkscape:connector-curvature="0"
         id="path47961"
         style="fill:#000000;fill-opacity:1;fill-rule:nonzero;stroke:none"
         d="m -904.95449,132.03964 2953.88939,0 0,-1098.96997 -2953.88939,0 0,1098.96997 z" />
      <g
         id="g3458">
        <g
           id="g3426">
          <path
             inkscape:connector-curvature="0"
             id="path47963"
             style="fill:#cfd4d8;fill-opacity:1;fill-rule:nonzero;stroke:none"
             d="m 1449.367,132.03964 92.3759,0 0,-274.07076 -92.3759,0 0,274.07076 z" />
          <path
             inkscape:connector-curvature="0"
             id="path47965"
             style="fill:#741472;fill-opacity:1;fill-rule:nonzero;stroke:none"
             d="m -210.91276,132.03964 230.920187,0 0,-274.07076 -230.920187,0 0,274.07076 z" />
          <path
             inkscape:connector-curvature="0"
             id="path47969"
             style="fill:#ffd400;fill-opacity:1;fill-rule:nonzero;stroke:none"
             d="m -720.36193,132.03964 138.48849,0 0,-274.07076 -138.48849,0 0,274.07076 z" />
          <path
             inkscape:connector-curvature="0"
             id="path47971"
             style="fill:#f15b5b;fill-opacity:1;fill-rule:nonzero;stroke:none"
             d="m -441.08061,132.03964 138.48849,0 0,-274.07076 -138.48849,0 0,274.07076 z" />
          <path
             inkscape:connector-curvature="0"
             id="path47973"
             style="fill:#cfd4d8;fill-opacity:1;fill-rule:nonzero;stroke:none"
             d="m -535.82096,132.03964 95.0112,0 0,-274.07076 -95.0112,0 0,274.07076 z" />
          <path
             inkscape:connector-curvature="0"
             id="path47975"
             style="fill:#ce171e;fill-opacity:1;fill-rule:nonzero;stroke:none"
             d="m 18.98423,132.03964 92.32423,0 0,-274.07076 -92.32423,0 0,274.07076 z" />
          <path
             inkscape:connector-curvature="0"
             id="path47977"
             style="fill:#ce171e;fill-opacity:1;fill-rule:nonzero;stroke:none"
             d="m -904.95449,132.03964 138.4326,0 0,-274.07076 -138.4326,0 0,274.07076 z" />
          <path
             inkscape:connector-curvature="0"
             id="path47979"
             style="fill:#741472;fill-opacity:1;fill-rule:nonzero;stroke:none"
             d="m 1819.0379,132.03964 138.5401,0 0,-274.07076 -138.5401,0 0,274.07076 z" />
          <path
             inkscape:connector-curvature="0"
             id="path47981"
             style="fill:#cfd4d8;fill-opacity:1;fill-rule:nonzero;stroke:none"
             d="m 111.0935,132.03964 138.54008,0 0,-274.07076 -138.54008,0 0,274.07076 z" />
          <path
             inkscape:connector-curvature="0"
             id="path47983"
             style="fill:#ce171e;fill-opacity:1;fill-rule:nonzero;stroke:none"
             d="m 249.25955,132.03964 138.48419,0 0,-274.07076 -138.48419,0 0,274.07076 z" />
          <path
             inkscape:connector-curvature="0"
             id="path47987"
             style="fill:#ffd400;fill-opacity:1;fill-rule:nonzero;stroke:none"
             d="m -302.96615,132.03964 92.37582,0 0,-274.07076 -92.37582,0 0,274.07076 z" />
          <path
             inkscape:connector-curvature="0"
             id="path47989"
             style="fill:#ffffff;fill-opacity:1;fill-rule:nonzero;stroke:none"
             d="m 1541.6869,132.03964 46.2202,0 0,-274.07076 -46.2202,0 0,274.07076 z" />
          <path
             inkscape:connector-curvature="0"
             id="path47991"
             style="fill:#ffd400;fill-opacity:1;fill-rule:nonzero;stroke:none"
             d="m 480.49788,132.03964 138.11016,0 0,-274.07076 -138.11016,0 0,274.07076 z" />
          <path
             inkscape:connector-curvature="0"
             id="path47995"
             style="fill:#741472;fill-opacity:1;fill-rule:nonzero;stroke:none"
             d="m 618.60804,132.03964 138.54008,0 0,-274.07076 -138.54008,0 0,274.07076 z" />
          <path
             inkscape:connector-curvature="0"
             id="path47997"
             style="fill:#f15b5b;fill-opacity:1;fill-rule:nonzero;stroke:none"
             d="m 757.04064,132.03964 92.43171,0 0,-274.07076 -92.43171,0 0,274.07076 z" />
          <path
             inkscape:connector-curvature="0"
             id="path47999"
             style="fill:#ce171e;fill-opacity:1;fill-rule:nonzero;stroke:none"
             d="m 849.25739,132.03964 46.59418,0 0,-274.07076 -46.59418,0 0,274.07076 z" />
          <path
             inkscape:connector-curvature="0"
             id="path48001"
             style="fill:#ffd400;fill-opacity:1;fill-rule:nonzero;stroke:none"
             d="m 895.79568,132.03964 138.48852,0 0,-274.07076 -138.48852,0 0,274.07076 z" />
          <path
             inkscape:connector-curvature="0"
             id="path48003"
             style="fill:#ffffff;fill-opacity:1;fill-rule:nonzero;stroke:none"
             d="m 1079.9067,132.03964 46.1084,0 0,-274.07076 -46.1084,0 0,274.07076 z" />
          <path
             inkscape:connector-curvature="0"
             id="path48005"
             style="fill:#ffffff;fill-opacity:1;fill-rule:nonzero;stroke:none"
             d="m 433.85211,132.03964 46.4867,0 0,-274.07076 -46.4867,0 0,274.07076 z" />
          <path
             inkscape:connector-curvature="0"
             id="path48007"
             style="fill:#ffffff;fill-opacity:1;fill-rule:nonzero;stroke:none"
             d="m -582.19588,132.03964 46.21586,0 0,-274.07076 -46.21586,0 0,274.07076 z" />
          <path
             inkscape:connector-curvature="0"
             id="path48009"
             style="fill:#ce171e;fill-opacity:1;fill-rule:nonzero;stroke:none"
             d="m 1218.3953,132.03964 230.9674,0 0,-274.07076 -230.9674,0 0,274.07076 z" />
          <path
             inkscape:connector-curvature="0"
             id="path48011"
             style="fill:#741472;fill-opacity:1;fill-rule:nonzero;stroke:none"
             d="m 1126.0151,132.03964 92.3802,0 0,-274.07076 -92.3802,0 0,274.07076 z" />
          <path
             inkscape:connector-curvature="0"
             id="path48013"
             style="fill:#f15b5b;fill-opacity:1;fill-rule:nonzero;stroke:none"
             d="m 1587.8512,132.03964 138.6475,0 0,-274.07076 -138.6475,0 0,274.07076 z" />
          <path
             inkscape:connector-curvature="0"
             id="path48015"
             style="fill:#ffd400;fill-opacity:1;fill-rule:nonzero;stroke:none"
             d="m 1726.4987,132.03964 92.6467,0 0,-274.07076 -92.6467,0 0,274.07076 z" />
          <path
             inkscape:connector-curvature="0"
             id="path48017"
             style="fill:#ce171e;fill-opacity:1;fill-rule:nonzero;stroke:none"
             d="m 1957.3631,132.03964 91.5718,0 0,-274.07076 -91.5718,0 0,274.07076 z" />
        </g>
        <g
           id="g3453">
          <path
             inkscape:connector-curvature="0"
             id="path47967"
             style="fill:#741472;fill-opacity:1;fill-rule:nonzero;stroke:none"
             d="m -766.68526,132.03964 46.15997,0 0,-274.07076 -46.15997,0 0,274.07076 z" />
          <path
             inkscape:connector-curvature="0"
             id="path47985"
             style="fill:#741472;fill-opacity:1;fill-rule:nonzero;stroke:none"
             d="m 387.69215,132.03964 46.32333,0 0,-274.07076 -46.32333,0 0,274.07076 z" />
          <path
             inkscape:connector-curvature="0"
             id="path47993"
             style="fill:#cfd4d8;fill-opacity:1;fill-rule:nonzero;stroke:none"
             d="m 1034.0649,132.03964 46.2202,0 0,-274.07076 -46.2202,0 0,274.07076 z" />
        </g>
      </g>
      <g
         transform="matrix(53.739367,0,0,-53.739367,-376.24514,-414.1393)"
         id="g48031">
        <path
           inkscape:connector-curvature="0"
           id="path48033"
           style="fill:#ffffff;fill-opacity:1;fill-rule:nonzero;stroke:none"
           d="m 0,0 c 0,0.035 -0.043,0.046 -0.043,0.046 -0.427,0.08 -0.827,0.382 -1.129,0.702 -0.494,0.524 -0.909,1.192 -1.07,1.504 -0.049,0.111 0.02,0.124 0.02,0.124 l 0,0 c 0.832,0.327 0.97,1.17 0.97,1.401 0,1.071 -0.999,1.387 -1.899,1.387 -0.341,0 -0.454,-0.029 -0.809,-0.029 -0.411,0 -0.659,0.029 -0.723,0.029 -0.057,0 -0.092,-0.051 -0.092,-0.108 0,-0.258 0.581,0.179 0.581,-0.683 l 0,-3.441 c 0,-0.798 -0.552,-0.575 -0.552,-0.769 0,-0.065 0.069,-0.087 0.113,-0.087 0.206,0 0.439,0.03 0.772,0.03 0.42,0 0.525,-0.03 0.767,-0.03 0.176,0 0.205,0.036 0.205,0.087 0,0.244 -0.744,-0.13 -0.744,0.906 l 0,3.628 c 0,0.215 0.156,0.215 0.382,0.215 0.816,0 1.461,-0.458 1.475,-1.329 0.009,-0.589 -0.426,-1.148 -1.149,-1.148 -0.254,0 -0.198,0.015 -0.255,0.015 -0.035,0 -0.071,-0.015 -0.071,-0.065 0,-0.067 0.053,-0.099 0.113,-0.118 0.081,-0.034 0.263,-0.064 0.453,-0.361 l 0,0 C -2.202,1.103 -1.657,-0.097 -0.416,-0.097 0.047,-0.097 0,-0.041 0,0 M 39.707,5.32 C 39.421,5.32 39.055,5.228 38.784,4.988 38.279,4.538 37.94,3.788 37.742,3.306 37.681,3.143 37.618,3.094 37.584,3.094 c -0.043,0 -0.085,0.043 -0.142,0.13 L 36.687,4.46 c -0.043,0.065 -0.128,0.179 -0.128,0.294 0,0.209 0.332,0.216 0.332,0.338 0,0.065 -0.084,0.072 -0.134,0.072 -0.07,0 -0.263,-0.029 -0.497,-0.029 -0.479,0 -0.617,0.029 -0.807,0.029 -0.05,0 -0.092,-0.058 -0.092,-0.108 0,-0.122 0.347,-0.036 0.531,-0.345 L 37.076,2.793 C 37.133,2.706 37.24,2.563 37.24,2.427 l 0,-1.74 c 0,-0.51 -0.546,-0.323 -0.546,-0.524 0,-0.079 0.043,-0.087 0.105,-0.087 0.065,0 0.32,0.03 0.638,0.03 0.263,0 0.675,-0.03 0.78,-0.03 0.101,0 0.164,0.008 0.164,0.072 0,0.223 -0.582,0.023 -0.582,0.648 l 0,1.718 c 0.144,0.435 0.439,1.14 0.881,1.698 0.349,0.441 0.755,0.783 1.306,0.975 0.037,0.014 0.069,0.031 0.069,0.069 0,0.066 -0.348,0.064 -0.348,0.064 M 28.264,4.41 c 0,0.481 -0.015,0.452 0.667,0.452 0.285,0 1.021,0.044 1.205,-0.2 0.114,-0.167 0,-0.511 0.171,-0.511 0.042,0 0.14,0.057 0.14,0.855 0,0.086 -0.013,0.158 -0.069,0.158 -0.22,0 -0.873,-0.028 -1.015,-0.028 -0.297,0 -0.666,0.028 -2.006,0.028 -0.206,0 -0.247,-0.028 -0.247,-0.086 0,-0.086 0.155,-0.101 0.211,-0.115 0.382,-0.057 0.382,-0.402 0.382,-0.725 l 0,-3.276 c 0,-0.338 -0.012,-0.54 -0.197,-0.627 -0.227,-0.114 -0.298,-0.1 -0.311,-0.187 0,-0.057 0.042,-0.072 0.105,-0.072 0.284,0 0.582,0.022 0.865,0.03 0.54,0.015 1.079,-0.03 1.617,-0.03 0.312,0 0.468,-0.014 0.694,0.245 0.169,0.186 0.355,0.437 0.355,0.697 0,0.014 -0.007,0.085 -0.056,0.085 -0.094,0 -0.334,-0.739 -1.972,-0.739 -0.594,0 -0.539,0.173 -0.539,0.598 l 0,1.319 c 0,0.109 -0.021,0.231 0.128,0.231 l 1.049,0 c 0.596,0 0.355,-0.631 0.575,-0.631 0.05,0 0.078,0.028 0.078,0.092 0,0.195 -0.015,0.381 -0.015,0.568 0,0.231 0.015,0.474 0.015,0.727 0,0.056 -0.022,0.135 -0.078,0.135 -0.171,0 0.021,-0.575 -0.716,-0.575 l -0.766,0 c -0.285,0 -0.27,0 -0.27,0.245 l 0,1.337 z m -8.35,-3.448 c 0,-0.425 -0.058,-0.598 0.538,-0.598 1.637,0 1.879,0.739 1.971,0.739 0.049,0 0.057,-0.071 0.057,-0.085 0,-0.258 -0.183,-0.511 -0.355,-0.697 -0.226,-0.259 -0.381,-0.245 -0.695,-0.245 -0.539,0 -1.077,0.045 -1.616,0.03 -0.284,-0.008 -0.58,-0.03 -0.865,-0.03 -0.064,0 -0.106,0.015 -0.106,0.072 0.014,0.087 0.084,0.073 0.312,0.187 0.184,0.087 0.198,0.289 0.198,0.627 l 0,3.642 c 0,0.373 -0.595,0.322 -0.595,0.467 0,0.079 0.049,0.093 0.142,0.093 0.148,0 0.368,-0.029 0.715,-0.029 0.404,0 0.575,0.029 0.682,0.029 0.09,0 0.133,-0.014 0.133,-0.101 0,-0.166 -0.516,0.015 -0.516,-0.609 l 0,-3.492 z m -7.815,3.735 c 0,0.215 0.156,0.215 0.384,0.215 0.814,0 1.473,-0.458 1.473,-1.329 0,-0.648 -0.425,-0.998 -1.147,-0.998 -0.256,0 -0.405,0.043 -0.462,0.043 -0.035,0 -0.071,-0.016 -0.071,-0.065 0,-0.129 0.411,-0.165 0.482,-0.165 1.511,0 1.723,1.092 1.723,1.379 0,1.071 -0.999,1.387 -1.901,1.387 -0.339,0 -0.453,-0.028 -0.807,-0.028 -0.411,0 -0.66,0.028 -0.724,0.028 -0.056,0 -0.091,-0.05 -0.091,-0.108 0,-0.258 0.581,0.179 0.581,-0.683 l 0,-3.441 c 0,-0.798 -0.554,-0.575 -0.554,-0.769 0,-0.065 0.071,-0.087 0.114,-0.087 0.206,0 0.44,0.03 0.774,0.03 0.417,0 0.523,-0.03 0.766,-0.03 0.176,0 0.205,0.036 0.205,0.087 0,0.244 -0.745,-0.13 -0.745,0.905 l 0,3.629 z M 4.805,4.546 C 4.797,5.071 4.23,4.926 4.23,5.084 c 0,0.066 0.015,0.08 0.071,0.08 0.262,0 0.517,-0.029 0.78,-0.029 0.219,0 0.439,0.029 0.66,0.029 0.112,0 0.134,-0.014 0.134,-0.072 0,-0.173 -0.51,-0.008 -0.51,-0.546 l 0,-3.859 c 0,-0.488 0.63,-0.323 0.63,-0.539 0,-0.05 -0.021,-0.072 -0.142,-0.072 -0.162,0 -0.467,0.03 -0.772,0.03 -0.432,0 -0.582,-0.03 -0.681,-0.03 -0.128,0 -0.148,0.036 -0.148,0.109 0,0.209 0.553,-0.031 0.553,0.683 l 0,3.678 z" />
      </g>
    </g>
  </g>
</svg>
